<svg width="1309" height="249" viewBox="0 0 1309 249" fill="none" xmlns="http://www.w3.org/2000/svg">
<path d="M-96 9.92348H116.159C164.125 9.92348 206.352 18.8133 242.839 36.5929C279.736 53.959 308.229 78.9745 328.318 111.639C348.816 144.304 359.065 182.758 359.065 227C359.065 271.242 348.816 309.696 328.318 342.361C308.229 375.025 279.736 400.248 242.839 418.027C206.352 435.393 164.125 444.076 116.159 444.076H-96V9.92348ZM110.009 329.956C141.167 329.956 165.97 321.066 184.419 303.287C203.277 285.094 212.707 259.665 212.707 227C212.707 194.335 203.277 169.113 184.419 151.333C165.97 133.14 141.167 124.044 110.009 124.044H49.129V329.956H110.009Z" fill="#FBFBFB" fill-opacity="0.05"/>
<path d="M696.78 215.216H822.846V398.801C797.428 416.58 767.91 430.225 734.293 439.735C700.675 449.245 667.673 454 635.285 454C589.369 454 548.167 444.49 511.68 425.47C475.192 406.036 446.494 379.16 425.586 344.842C405.088 310.109 394.838 270.829 394.838 227C394.838 183.171 405.088 144.097 425.586 109.779C446.494 75.0464 475.397 48.1703 512.294 29.1503C549.602 9.71676 591.623 0 638.36 0C680.587 0 718.304 7.23588 751.511 21.7076C785.129 35.7659 813.007 56.4399 835.145 83.7295L742.287 166.219C715.229 134.381 683.046 118.462 645.739 118.462C613.762 118.462 588.344 128.178 569.485 147.612C550.627 167.046 541.197 193.508 541.197 227C541.197 259.665 550.422 285.921 568.87 305.768C587.729 325.615 612.737 335.538 643.894 335.538C662.343 335.538 679.972 332.024 696.78 324.995V215.216Z" fill="#FBFBFB" fill-opacity="0.05"/>
<path d="M1309 9.92348V444.076H1189.7L1026.12 246.847V444.076H884.682V9.92348H1003.98L1167.56 207.153V9.92348H1309Z" fill="#FBFBFB" fill-opacity="0.05"/>
</svg>
