<svg width="31" height="31" viewBox="0 0 31 31" fill="none" xmlns="http://www.w3.org/2000/svg">
<path d="M15.5 0.975C7.47919 0.975 0.916687 7.52292 0.916687 15.5875C0.916687 22.8792 6.25419 28.9312 13.225 30.025V19.8167H9.52085V15.5875H13.225V12.3646C13.225 8.70417 15.3979 6.69167 18.7375 6.69167C20.3271 6.69167 21.9896 6.96875 21.9896 6.96875V10.5708H20.1521C18.3438 10.5708 17.775 11.6938 17.775 12.8458V15.5875H21.8292L21.1729 19.8167H17.775V30.025C21.2115 29.4823 24.3407 27.7289 26.5978 25.0813C28.8549 22.4338 30.0912 19.0666 30.0834 15.5875C30.0834 7.52292 23.5209 0.975 15.5 0.975Z" fill="black"/>
</svg>
