<svg width="43" height="43" viewBox="0 0 43 43" fill="none" xmlns="http://www.w3.org/2000/svg">
<path d="M21.5001 0.860001C10.1008 0.860001 0.860107 10.1007 0.860107 21.5C0.860107 32.8993 10.1008 42.14 21.5001 42.14C32.8994 42.14 42.1401 32.8993 42.1401 21.5C42.1401 10.1007 32.8994 0.860001 21.5001 0.860001ZM16.4476 30.0549H12.268V16.6045H16.4476V30.0549ZM14.332 14.9533C13.0119 14.9533 12.1584 14.018 12.1584 12.8613C12.1584 11.681 13.0377 10.7737 14.3858 10.7737C15.7338 10.7737 16.5594 11.681 16.5852 12.8613C16.5852 14.018 15.7338 14.9533 14.332 14.9533ZM31.7126 30.0549H27.533V22.6008C27.533 20.8658 26.9267 19.6876 25.4153 19.6876C24.2607 19.6876 23.5749 20.4852 23.2717 21.2528C23.1599 21.5258 23.132 21.9128 23.132 22.2977V30.0527H18.9502V20.8937C18.9502 19.2146 18.8965 17.8106 18.8406 16.6023H22.4719L22.6633 18.4707H22.7471C23.2975 17.5935 24.6456 16.2992 26.9009 16.2992C29.6508 16.2992 31.7126 18.1417 31.7126 22.102V30.0549Z" fill="black"/>
</svg>
