<svg width="164" height="51" viewBox="0 0 164 51" fill="none" xmlns="http://www.w3.org/2000/svg">
<rect width="164" height="51" fill="black"/>
<path d="M37 11.6339H50.5902C53.6628 11.6339 56.3677 12.2017 58.705 13.3374C61.0685 14.4467 62.8937 16.0446 64.1805 18.1311C65.4936 20.2177 66.1501 22.674 66.1501 25.5C66.1501 28.326 65.4936 30.7823 64.1805 32.8688C62.8937 34.9554 61.0685 36.5665 58.705 37.7022C56.3677 38.8115 53.6628 39.3661 50.5902 39.3661H37V11.6339ZM50.1963 32.0765C52.1922 32.0765 53.781 31.5086 54.9628 30.3729C56.1708 29.2108 56.7748 27.5865 56.7748 25.5C56.7748 23.4135 56.1708 21.8024 54.9628 20.6667C53.781 19.5046 52.1922 18.9235 50.1963 18.9235H46.2965V32.0765H50.1963Z" fill="white"/>
<path d="M87.7831 24.7473H95.8585V36.474C94.2302 37.6097 92.3394 38.4813 90.186 39.0888C88.0326 39.6963 85.9185 40 83.8439 40C80.9026 40 78.2633 39.3925 75.9261 38.1776C73.5888 36.9362 71.7505 35.2195 70.4112 33.0273C69.0981 30.8087 68.4416 28.2996 68.4416 25.5C68.4416 22.7004 69.0981 20.2045 70.4112 18.0123C71.7505 15.7937 73.602 14.077 75.9655 12.862C78.3553 11.6207 81.0471 11 84.0408 11C86.7458 11 89.1618 11.4622 91.289 12.3866C93.4424 13.2846 95.2282 14.6052 96.6463 16.3484L90.6981 21.6175C88.9648 19.5838 86.9033 18.5669 84.5135 18.5669C82.4652 18.5669 80.837 19.1876 79.6289 20.429C78.4209 21.6703 77.8169 23.3607 77.8169 25.5C77.8169 27.5865 78.4078 29.2637 79.5895 30.5314C80.7976 31.7992 82.3995 32.4331 84.3954 32.4331C85.5771 32.4331 86.7064 32.2086 87.7831 31.7596V24.7473Z" fill="white"/>
<path d="M127 11.6339V39.3661H119.358L108.88 26.7678V39.3661H99.8195V11.6339H107.462L117.94 24.2322V11.6339H127Z" fill="white"/>
</svg>
