<svg width="31" height="31" viewBox="0 0 31 31" fill="none" xmlns="http://www.w3.org/2000/svg">
<path d="M15.5 19.875C16.6813 19.875 17.6875 19.4375 18.5771 18.5771C19.4375 17.6875 19.875 16.6812 19.875 15.5C19.875 14.3187 19.4375 13.3125 18.5771 12.4229C17.6875 11.5625 16.6813 11.125 15.5 11.125C14.3188 11.125 13.3125 11.5625 12.4229 12.4229C11.5625 13.3125 11.125 14.3187 11.125 15.5C11.125 16.6812 11.5625 17.6875 12.4229 18.5771C13.3125 19.4375 14.3188 19.875 15.5 19.875ZM15.5 0.916667C19.5104 0.916667 22.9375 2.375 25.7813 5.21875C28.625 8.0625 30.0834 11.4896 30.0834 15.5V17.6146C30.0834 19.0729 29.5729 20.3125 28.625 21.3333C27.6042 22.3104 26.4375 22.7917 24.9792 22.7917C23.2292 22.7917 21.7854 22.0625 20.6917 20.6042C19.2334 22.0625 17.5125 22.7917 15.5 22.7917C13.5021 22.7917 11.7813 22.0625 10.3375 20.6625C8.93752 19.2187 8.20835 17.5125 8.20835 15.5C8.20835 13.5021 8.93752 11.7812 10.3375 10.3375C11.7813 8.9375 13.5021 8.20833 15.5 8.20833C17.5125 8.20833 19.2188 8.9375 20.6625 10.3375C22.0625 11.7812 22.7917 13.5021 22.7917 15.5V17.6146C22.7917 18.2125 23.025 18.7375 23.4625 19.1896C23.9 19.6417 24.4104 19.875 24.9792 19.875C25.5917 19.875 26.1021 19.6417 26.5396 19.1896C26.9771 18.7375 27.1667 18.2125 27.1667 17.6146V15.5C27.1667 12.3062 26.0438 9.56458 23.7396 7.26042C21.4354 4.95625 18.6938 3.83333 15.5 3.83333C12.3063 3.83333 9.5646 4.95625 7.26044 7.26042C4.95627 9.56458 3.83335 12.3062 3.83335 15.5C3.83335 18.6937 4.95627 21.4354 7.26044 23.7396C9.5646 26.0437 12.3063 27.1667 15.5 27.1667H22.7917V30.0833H15.5C11.4896 30.0833 8.06252 28.625 5.21877 25.7812C2.37502 22.9375 0.916687 19.5104 0.916687 15.5C0.916687 11.4896 2.37502 8.0625 5.21877 5.21875C8.06252 2.375 11.4896 0.916667 15.5 0.916667Z" fill="black"/>
</svg>
