<svg width="41" height="41" viewBox="0 0 41 41" fill="none" xmlns="http://www.w3.org/2000/svg">
<path d="M20.5 0C9.17816 0 0 9.17816 0 20.5C0 31.8218 9.17816 41 20.5 41C31.8218 41 41 31.8218 41 20.5C41 9.17816 31.8218 0 20.5 0ZM10.0098 12.5698H30.9902V15.5202L20.5 21.501L10.0098 15.5201V12.5698ZM10.0098 17.407L15.3525 20.4525L10.0098 26.0529V17.407ZM30.9902 17.407V26.0529L25.6475 20.4524L30.9902 17.407ZM16.8214 21.2908L20.5 23.3878L24.1786 21.2908L30.9902 28.4302H10.0098L16.8214 21.2908Z" fill="black"/>
</svg>
