<svg width="375" height="123" viewBox="0 0 375 123" fill="none" xmlns="http://www.w3.org/2000/svg">
<path d="M-8 2.99453H56.0252C70.5004 2.99453 83.2436 5.67714 94.2547 11.0424C105.389 16.2828 113.988 23.8315 120.05 33.6885C126.236 43.5455 129.329 55.1494 129.329 68.5C129.329 81.8506 126.236 93.4545 120.05 103.311C113.988 113.168 105.389 120.78 94.2547 126.145C83.2436 131.385 70.5004 134.005 56.0252 134.005H-8V2.99453ZM54.1694 99.5683C63.5721 99.5683 71.0572 96.8857 76.6246 91.5205C82.3157 86.0305 85.1613 78.357 85.1613 68.5C85.1613 58.643 82.3157 51.0319 76.6246 45.6667C71.0572 40.1767 63.5721 37.4317 54.1694 37.4317H35.7969V99.5683H54.1694Z" fill="#FBFBFB" fill-opacity="0.05"/>
<path d="M231.245 64.944H269.289V120.343C261.618 125.708 252.71 129.826 242.565 132.695C232.42 135.565 222.461 137 212.687 137C198.83 137 186.396 134.13 175.385 128.391C164.374 122.526 155.714 114.416 149.404 104.06C143.218 93.5792 140.125 81.7259 140.125 68.5C140.125 55.2741 143.218 43.4831 149.404 33.127C155.714 22.6462 164.436 14.536 175.571 8.79645C186.829 2.93215 199.511 0 213.615 0C226.358 0 237.74 2.18351 247.761 6.55054C257.906 10.7928 266.319 17.0314 273 25.2664L244.978 50.1585C236.812 40.551 227.1 35.7473 215.842 35.7473C206.191 35.7473 198.521 38.6794 192.83 44.5437C187.139 50.408 184.293 58.3934 184.293 68.5C184.293 78.357 187.077 86.2801 192.644 92.2691C198.335 98.2582 205.882 101.253 215.285 101.253C220.852 101.253 226.172 100.192 231.245 98.071V64.944Z" fill="#FBFBFB" fill-opacity="0.05"/>
<path d="M416 2.99453V134.005H379.997L330.633 74.4891V134.005H287.95V2.99453H323.952L373.317 62.5109V2.99453H416Z" fill="#FBFBFB" fill-opacity="0.05"/>
</svg>
