<svg width="31" height="31" viewBox="0 0 31 31" fill="none" xmlns="http://www.w3.org/2000/svg">
<path d="M15.5583 0.916667C7.59581 0.916667 1.10623 7.40625 1.10623 15.3687C1.10623 17.9208 1.77706 20.4 3.03123 22.5875L0.989563 30.0833L8.64581 28.0708C10.7604 29.2229 13.1375 29.8354 15.5583 29.8354C23.5208 29.8354 30.0104 23.3458 30.0104 15.3833C30.0104 11.5187 28.5083 7.8875 25.7812 5.16042C24.4442 3.80989 22.8517 2.7391 21.0965 2.01049C19.3414 1.28188 17.4587 0.910046 15.5583 0.916667ZM15.5729 3.35208C18.7812 3.35208 21.7854 4.60625 24.0604 6.88125C25.1769 7.99739 26.0621 9.32296 26.6652 10.7819C27.2683 12.2409 27.5775 13.8046 27.575 15.3833C27.575 22.0042 22.1791 27.3854 15.5583 27.3854C13.4 27.3854 11.2854 26.8167 9.4479 25.7083L9.0104 25.4604L4.4604 26.6562L5.67081 22.2229L5.37915 21.7563C4.17448 19.8439 3.53729 17.6289 3.54165 15.3687C3.55623 8.74792 8.93748 3.35208 15.5729 3.35208ZM10.4396 8.68958C10.2062 8.68958 9.81248 8.77708 9.47706 9.14167C9.15623 9.50625 8.20831 10.3958 8.20831 12.1604C8.20831 13.9396 9.50623 15.6458 9.66665 15.8938C9.87081 16.1417 12.2333 19.7875 15.8646 21.3333C16.725 21.7271 17.3958 21.9458 17.9208 22.1063C18.7812 22.3833 19.5687 22.3396 20.1958 22.2521C20.8958 22.15 22.325 21.3771 22.6312 20.5312C22.9375 19.6854 22.9375 18.9708 22.85 18.8104C22.7479 18.6646 22.5146 18.5771 22.15 18.4167C21.7854 18.2125 20.0062 17.3375 19.6854 17.2208C19.35 17.1042 19.1458 17.0458 18.8687 17.3958C18.6354 17.7604 17.9354 18.5771 17.7312 18.8104C17.5125 19.0583 17.3083 19.0875 16.9583 18.9125C16.5791 18.7229 15.4125 18.3437 14.0416 17.1187C12.9625 16.1562 12.2479 14.975 12.0291 14.6104C11.8541 14.2604 12.0146 14.0417 12.1896 13.8812C12.35 13.7208 12.5833 13.4583 12.7291 13.2396C12.9187 13.0354 12.9771 12.875 13.0937 12.6417C13.2104 12.3937 13.1521 12.1896 13.0646 12.0146C12.9771 11.8542 12.2479 10.0458 11.9416 9.33125C11.65 8.63125 11.3583 8.71875 11.125 8.70417C10.9208 8.70417 10.6875 8.68958 10.4396 8.68958Z" fill="black"/>
</svg>
