<svg width="41" height="40" viewBox="0 0 41 40" fill="none" xmlns="http://www.w3.org/2000/svg">
<path d="M38 9.25C32 -5.96046e-07 19.75 -2.75 10.25 3C0.999998 8.75 -2 21.25 4 30.5L4.5 31.25L2.5 38.75L10 36.75L10.75 37.25C14 39 17.5 40 21 40C24.75 40 28.5 39 31.75 37C41 31 43.75 18.75 38 9.25ZM32.75 28.5C31.75 30 30.5 31 28.75 31.25C27.75 31.25 26.5 31.75 21.5 29.75C17.25 27.75 13.75 24.5 11.25 20.75C9.75 19 9 16.75 8.75 14.5C8.75 12.5 9.5 10.75 10.75 9.5C11.25 9 11.75 8.75 12.25 8.75H13.5C14 8.75 14.5 8.75 14.75 9.75C15.25 11 16.5 14 16.5 14.25C16.75 14.5 16.75 15 16.5 15.25C16.75 15.75 16.5 16.25 16.25 16.5C16 16.75 15.75 17.25 15.5 17.5C15 17.75 14.75 18.25 15 18.75C16 20.25 17.25 21.75 18.5 23C20 24.25 21.5 25.25 23.25 26C23.75 26.25 24.25 26.25 24.5 25.75C24.75 25.25 26 24 26.5 23.5C27 23 27.25 23 27.75 23.25L31.75 25.25C32.25 25.5 32.75 25.75 33 26C33.25 26.75 33.25 27.75 32.75 28.5Z" fill="black"/>
</svg>
